<svg xmlns="http://www.w3.org/2000/svg" xml:space="preserve" id="Layer_1" width="512" height="90" x="0" y="0" viewBox="0 0 512 90"><g id="Imagotipo_00000170998674366071400120000011883165985132049071_"><g id="Isotipo_00000124129773167412416280000009142444946409829766_"><g id="Layer_1_00000178898577490286317420000012154702178806171056_"><path fill="#383634" d="M132.1 71.3h-4.6c-4.4 0-7.1-1.9-7.1-5.5v-.1c0-3.6 2.9-5.5 7.1-5.5h4.5zm9.7-36.7-9.7 13.6h-5.4c-13.5 0-22.7 6.4-22.7 18.5v.1c0 11.9 9.1 17.8 22.4 17.8h22.5v-50zm-56.4 19c0 3.6-2.9 5.5-7.1 5.5h-4.5V48h4.6c4.4 0 7.1 1.9 7.1 5.5zm-5.8-19H66.9l-9.8 13.6v36.4h16.7V71.1h5.4c13.5 0 22.7-6.4 22.7-18.5v-.1c0-11.9-9-17.9-22.3-17.9"/><path fill="#cc2032" d="M77.6 27.2C74.8 23.4 66.1 11.1 63 6.9c-.6-.9-1.7-1.4-2.8-1.4h-1.8c-.8 0-1.2.9-.8 1.5l9.1 12.7c1.5 2.1 2.4 4.9 2.6 7.7 0 .6.5 1.1 1.1 1.1H77c.6-.2 1-.8.6-1.3M48 28.3S36.2 11.9 32.6 6.8c-.6-.9-1.7-1.4-2.8-1.4H11.9C10.1 5.4 9 7.5 10.1 9c4.6 6.5 13.8 19.3 13.8 19.3L8.1 50.2c-1.6 2.2-2.6 4.9-2.6 7.9 0 7.3 5.9 13.2 13.2 13.2h24.1c-7.3 0-13.2-5.9-13.2-13.2 0-3.2 1.1-6.1 3-8.4z"/></g></g><g id="Logotipo_00000004523451318443507830000003733825118187994016_" fill="#383634"><path id="PREFABRICADOS_00000178174523889106225200000008172220577424430498_" d="M498.5 27.9c-4.4-1.1-5.4-1.7-5.4-3.3v-.1c0-1.2 1.1-2.2 3.2-2.2s4.3.9 6.5 2.5l2.9-4.2c-2.6-2.1-5.7-3.2-9.4-3.2-5.1 0-8.8 3-8.8 7.6v.1c0 5 3.3 6.4 8.4 7.7 4.2 1.1 5.1 1.8 5.1 3.2v.1c0 1.5-1.4 2.4-3.6 2.4-2.9 0-5.3-1.2-7.5-3.1l-3.3 3.9c3 2.7 6.9 4 10.7 4 5.4 0 9.2-2.8 9.2-7.8v-.1c0-4.3-2.9-6.2-8-7.5m-20.8 2.6c0 4.3-3.1 7.8-7.6 7.8s-7.6-3.6-7.6-7.9v-.1c0-4.3 3.1-7.8 7.6-7.8 4.4 0 7.6 3.6 7.6 8m5.8-.1c0-7.2-5.6-13-13.4-13s-13.4 5.9-13.4 13v.1c0 7.2 5.6 13 13.4 13 7.7-.1 13.4-5.9 13.4-13.1m-36.4.1c0 4.5-3.1 7.5-7.6 7.5h-4.3V22.8h4.3c4.5 0 7.6 3.1 7.6 7.7m5.8-.2c0-7.1-5.5-12.5-13.4-12.5h-9.8V43h9.8c7.9 0 13.4-5.5 13.4-12.7M409 32.5l3.3-8.2 3.3 8.2zm.9-14.9L399.1 43h5.7l2.3-5.7h10.7L420 43h5.8L415 17.6zm-23.3 20.7c-4.3 0-7.3-3.6-7.3-7.9v-.1c0-4.3 3.1-7.8 7.3-7.8 2.5 0 4.5 1.1 6.4 2.8l3.5-4.1c-2.3-2.3-5.2-3.9-9.9-3.9-7.7 0-13.1 5.9-13.1 13v.1c0 7.2 5.5 13 12.9 13 4.9 0 7.7-1.7 10.3-4.5l-3.5-3.6c-1.9 1.9-3.7 3-6.6 3M362.8 43h5.5V17.8h-5.5zm-10.9-16.5c0 2.1-1.6 3.6-4.3 3.6H342v-7.2h5.5c2.8-.1 4.4 1.1 4.4 3.6m5.6-.3c0-2.4-.8-4.4-2.2-5.8-1.7-1.7-4.1-2.6-7.3-2.6h-11.5V43h5.5v-8h4.4l5.4 8.1h6.5l-6.2-9c3.3-1.3 5.5-3.8 5.4-7.9m-31.1 9.2c0 1.9-1.5 2.7-3.9 2.7h-6.6v-5.5h6.4c2.9 0 4.1 1 4.1 2.8m-10.5-12.7h5.5c2.3 0 3.6.9 3.6 2.6v.1c0 1.9-1.6 2.7-4 2.7h-5.1zm11.3 7.1c1.8-1 3.3-2.6 3.3-5.4v-.1c0-1.7-.6-3.1-1.7-4.3-1.4-1.4-3.7-2.2-6.6-2.2h-11.7V43h12c5.7 0 9.4-2.3 9.4-6.9V36c0-3.3-1.7-5-4.7-6.2m-37.3 2.7 3.3-8.2 3.3 8.2zm.8-14.9L279.9 43h5.7l2.3-5.7h10.7l2.3 5.7h5.8l-10.8-25.4zm-23.8 5.2h13.7v-5h-19.2V43h5.5v-9.8h12v-5h-12zm-24.2 10h11.9v-4.9h-11.9v-5.1h13.5v-4.9h-19V43h19.2v-4.9h-13.7zm-16.1-6.3c0 2.1-1.6 3.6-4.3 3.6h-5.6v-7.2h5.5c2.7-.1 4.4 1.1 4.4 3.6m5.6-.3c0-2.4-.8-4.4-2.2-5.8-1.7-1.7-4.1-2.6-7.3-2.6h-11.5V43h5.5v-8h4.4l5.4 8.1h6.5l-6.2-9c3.2-1.3 5.4-3.8 5.4-7.9m-30.7.5c0 2.2-1.6 3.8-4.4 3.8h-4.4v-7.7h4.3c2.7 0 4.5 1.3 4.5 3.9m-4.1-8.9h-10.3V43h5.5v-7.6h4.2c5.7 0 10.2-3 10.2-8.9v-.1c.1-5-3.5-8.6-9.6-8.6"/><path id="Duero_00000023256372660120949920000011774123085397785996_" d="M282.3 56.1c-5.7 0-9.9 4.5-9.9 9.9 0 5.3 4.1 9.8 9.8 9.8s9.9-4.5 9.9-9.9v-.1c0-5.3-4.2-9.7-9.8-9.7m6.9 9.9c0 4-2.9 7.3-7 7.3s-7-3.3-7-7.4v-.1c0-4 2.8-7.3 6.9-7.3s7.1 3.4 7.1 7.5m-26.9-4.6v-4.9h-2.8v18.9h2.8v-7.5c0-5.7 3.4-8.7 7.5-8.7h.2v-3c-3.5-.2-6.3 2.1-7.7 5.2m-7.7 4.6c0-5.5-3.2-10-8.8-10-5.2 0-9.1 4.4-9.1 9.8v.2c0 5.9 4.2 9.8 9.4 9.8 3.6 0 5.9-1.4 7.8-3.6l-1.8-1.6c-1.5 1.6-3.4 2.7-6 2.7-3.4 0-6.3-2.3-6.7-6.4h15c.2-.3.2-.5.2-.9m-15.1-1.1c.4-3.7 2.9-6.4 6.2-6.4 3.8 0 5.8 3 6 6.4zm-10.8 2.4c0 3.6-2.5 5.9-5.7 5.9s-5.2-2.2-5.2-5.7v-11H215v11.8c0 4.5 2.7 7.6 7.2 7.6 3.3 0 5.2-1.6 6.5-3.7v3.3h2.8v-19h-2.8zM196 49.8h-8.9v25.6h8.9c8.1 0 13.6-5.6 13.6-12.8v-.1c.1-7.2-5.5-12.7-13.6-12.7m10.6 12.9c0 5.7-4.1 10.1-10.6 10.1h-6V52.4h6c6.5 0 10.6 4.5 10.6 10.3"/></g><path fill="none" stroke="#000" stroke-miterlimit="10" stroke-width="1.802" d="M169.3 5.4v79.2"/></g></svg>