<svg version="1.1" id="logo_PDJIT" xmlns="http://www.w3.org/2000/svg" xmlns:xlink="http://www.w3.org/1999/xlink" x="0px" y="0px" viewBox="0 0 1020 268" enable-background="new 0 0 1020 268" xml:space="preserve">
<g>
	<g id="JIT">
		<g>
			<path fill="#CC2032" d="M585,2.9c4.8-1.1,10.8-0.1,13.8,4.3c15.1,21.1,30.2,42.2,45.4,63.3c-15.4,21.1-30.4,42.4-45.8,63.5
				c-5.5,6.9-8.7,15.7-8.5,24.5c0,12.1,6.1,24,15.9,31c5.6,4.2,12.3,6.6,19.2,7.5c-5,0.6-9.9-0.4-14.9,0.2c-8,0-16.1-0.3-24.1,0
				c-6.3-0.6-12.5,0.4-18.8-0.2c-4.3-0.3-8.7,0.4-13-0.1c-5.7-0.3-11.1-2.3-16.1-5c24.5-34.4,48.9-68.8,73.4-103.2
				c7.4-10.7,7.4-25.8,0.1-36.5c-9.7-13.8-19.5-27.5-29.2-41.2C580,8.3,581.7,3.9,585,2.9L585,2.9z"/>
			<path fill="#CC2032" d="M688.3,4.7c1.7-2.1,4.5-2.3,6.9-2.1c3.6-0.1,7.4,1.6,9.5,4.6c15.1,21.1,30.3,42.2,45.3,63.3
				c-15.3,21.1-30.4,42.4-45.8,63.5c-7,8.7-10,20.5-7.8,31.5c2.9,16.5,17.7,30.4,34.6,31.2c-5.4,0.5-10.7,0.8-16.1,0.4
				c-18.1,0-36.1,0.1-54.2-0.1c-5.9-0.2-11.6-2.3-16.8-5c24.3-34.2,48.6-68.5,73-102.7c7.8-10.8,7.9-26.4,0.2-37.3
				c-9.5-13.4-18.9-26.7-28.4-40.1C686.9,9.9,686.5,6.8,688.3,4.7L688.3,4.7z"/>
			<path fill="#CC2032" d="M426.4,13.8c-3.7-4.3,0.3-11.3,5.7-11.1c17.2,0,34.4,0,51.5,0c3.4-0.1,6.9,1.4,8.9,4.2
				c15.2,21.2,30.4,42.4,45.6,63.6c-15.2,21.4-30.6,42.6-46,63.9c-6.8,8.6-9.6,20-7.6,30.8c2.8,16.8,17.7,30.8,34.8,31.7
				c-11,0.6-22.1,0-33.2,0.5c-1.4,0-2.9,0-4.3,0c-5.2-0.6-10.3,0.2-15.5-0.2c-8.9-0.4-18.1,1.2-26.7-1.8
				c-13.9-4.3-24.9-17.1-26.5-31.6c-0.2-6.1-0.6-12.4,1.7-18.1c2.1-6.4,6.5-11.7,10.3-17.1c13.9-19.3,27.9-38.6,41.6-58
				C453.4,51.6,440,32.6,426.4,13.8z"/>
			<path fill="#383634" d="M820.4,70.3c5.1,0,10.2,0,15.3,0c-0.1,26.5,0,53,0,79.4c-0.2,11.9-3.5,24.3-12.1,33
				c-9.5,10.1-23.7,14.6-37.3,14.3c-13,0.2-26.3-3.4-36.3-11.9c7-9.9,14.2-19.6,21.1-29.5c3.6,4,8.8,7.2,14.4,6.2
				c6.1-0.8,9.5-7.1,9.6-12.8c0.2-14.5-0.1-29,0.1-43.5C803.4,93.7,812.1,82.1,820.4,70.3L820.4,70.3z"/>
			<path fill="#383634" d="M874.2,70.3c5.4,0,10.9,0,16.4,0c0,42.2,0,84.5,0,126.7c-13.9,0-27.8,0-41.7,0c0-30.4,0.1-60.9,0-91.3
				C857.2,93.9,865.7,82.1,874.2,70.3z"/>
			<path fill="#383634" d="M925.6,70.3c29.8,0,59.5,0,89.3,0v35.2c-12.2,0-24.4,0-36.5,0c0,30.5,0,61,0,91.5c-13.9,0-27.7,0-41.6,0
				c0-30.5,0-61,0-91.5c-12.2-0.1-24.4,0-36.6,0C908.7,93.8,917.1,82,925.6,70.3L925.6,70.3z"/>
			<path fill="#383634" d="M563.8,225.3c1.7,0.7,3.3,1.4,5,2c-1.9,1.5-3.9,3-5.8,4.4c-1.4,0-2.8,0-4.2,0
				C560.5,229.6,562.2,227.5,563.8,225.3z"/>
			<path fill="#383634" d="M464.1,234.2h5.6c-0.1,7.1,0.1,14.2-0.1,21.4c-0.1,4.1-2.7,8.2-6.7,9.2c-4.9,1.7-10.3-0.5-13.5-4.3
				c1.2-1.3,2.3-2.6,3.5-3.9c1.8,1.8,3.9,4,6.8,3.6c2.8-0.1,4.3-2.9,4.4-5.4C464.2,248,464.1,241.1,464.1,234.2L464.1,234.2z"/>
			<path fill="#383634" d="M490.4,234c5.8-1.3,12.5,0.5,16.3,5.3c5.8,6.8,4.3,18.4-3.3,23.3c-7.7,5.6-19.9,2.6-23.7-6.2
				C475.3,247.7,480.8,235.9,490.4,234z M491,239.1c-3.8,1.2-6.5,4.8-7,8.7c-1.2,6.3,4.2,13.1,10.8,12.5c6.8-0.1,11.4-7.7,9.3-13.9
				C502.9,240.7,496.4,237.2,491,239.1z"/>
			<path fill="#383634" d="M522.5,235.3c5.3-2.9,12.2-1.7,16.8,1.9c0.5,1.7-1.6,3.1-2.3,4.6c-3.1-2.2-7-4-10.9-2.7
				c-2.3,0.7-3.5,4-1.4,5.6c3.9,2.7,9,2.2,12.9,5c3.7,2.3,4.1,7.7,2,11.2c-1.7,2.7-4.8,4-7.8,4.5c-5.3,0.6-10.7-1.5-14.7-4.9
				c1.1-1.3,2.2-2.6,3.3-3.9c3.4,2.7,8,5,12.4,3.5c1.8-0.4,2.4-2.1,3-3.5c-0.7-2.5-3.2-3.6-5.5-4.2c-3.2-0.9-6.7-1.4-9.4-3.5
				C516.6,245.2,517.7,237.7,522.5,235.3z"/>
			<path fill="#383634" d="M549.6,234.2c7.6,0,15.2,0,22.8,0c0,1.6,0,3.2,0,4.8h-17.3c0,2.6,0,5.2,0,7.8c5.1,0,10.1,0,15.2,0
				c0,1.7,0,3.3,0,4.9c-5.1,0-10.2,0-15.2,0c0,2.7,0,5.5,0,8.2c5.8,0,11.6,0,17.4,0c0,1.6,0,3.2,0,4.8c-7.7,0-15.4,0-23,0
				C549.6,254.6,549.6,244.4,549.6,234.2L549.6,234.2z"/>
			<path fill="#383634" d="M597.5,234.2c1.8,0,3.6,0,5.5,0c0,10.2,0,20.4,0,30.6c-1.8,0-3.7,0-5.5,0
				C597.5,254.6,597.5,244.4,597.5,234.2L597.5,234.2z"/>
			<path fill="#383634" d="M617,235.3c5.6-3.1,12.6-1.4,17.5,2.2c-1,1.4-2,2.8-3,4.2c-3.1-2.1-7.1-4-10.9-2.7
				c-2.3,0.7-3.5,4.1-1.4,5.7c4.1,2.8,9.6,2.2,13.5,5.4c4.4,3.6,2.9,11.7-2.3,13.9c-6.3,3.1-13.8,0.7-19-3.4c1-1.4,2.1-2.7,3.2-4
				c3.5,2.7,8,5,12.5,3.5c2.5-0.6,3.8-4.1,1.7-5.8c-4.1-2.8-9.7-2.2-13.6-5.4C611.2,245.2,612.3,237.8,617,235.3L617,235.3z"/>
			<path fill="#383634" d="M644.6,234.2h5.4c0,10.2,0,20.4,0,30.6c-1.8,0-3.6,0-5.4,0C644.6,254.6,644.6,244.4,644.6,234.2z"/>
			<path fill="#383634" d="M660.5,234.3c6.9,0.5,14.6-1.5,20.9,2.4c5.5,3.2,8.2,10.3,6.6,16.4c-1.2,6-6.6,10.6-12.6,11.5
				c-4.9,0.5-9.9,0.1-14.9,0.3C660.6,254.6,660.6,244.4,660.5,234.3L660.5,234.3z M666.1,239.1c0,6.9,0,13.8,0,20.7
				c4.2-0.2,8.9,0.8,12.5-1.9c5.7-3.9,5.4-13.7-0.6-17.2C674.5,238.5,670.1,239.2,666.1,239.1z"/>
			<path fill="#383634" d="M697.4,234.2c5,0,10,0,15,0c4,0,8.3,2.3,9.6,6.3c0.9,3.1,0.6,6.9-1.5,9.4c-1.3,1.6-3.3,2.4-5.1,3.3
				c2.8,3.8,5.4,7.7,8.2,11.5c-2.2,0-4.4,0-6.6,0c-2.5-3.6-5-7.1-7.5-10.6c-2.3,0-4.5,0-6.8,0c0,3.6,0,7.1,0,10.7
				c-1.8,0-3.6,0-5.3,0C697.4,254.6,697.4,244.4,697.4,234.2L697.4,234.2z M703,239.1c-0.3,3.4-0.2,6.8-0.2,10.2
				c3.7-0.2,7.7,0.6,11.3-0.6c3.5-1.3,4-6.7,0.8-8.6C711.1,238.3,706.9,239.4,703,239.1L703,239.1z"/>
			<path fill="#383634" d="M741.7,234.2c6.4-1.8,14.1,0.4,17.8,6.1c5.2,7.3,2.8,18.8-5.3,23c-8,4.8-19.8,1-22.9-7.9
				C727.7,247.1,732.8,236.4,741.7,234.2L741.7,234.2z M743.5,239c-4.6,1.2-7.8,6-7.6,10.7c-0.1,5.7,4.9,11.1,10.7,10.7
				c5.9,0,10.5-5.8,9.9-11.5C756.5,242.4,749.8,237.1,743.5,239L743.5,239z"/>
			<path fill="#383634" d="M784.8,234.2c8.3,0,16.6,0,25,0c0,1.6,0,3.3,0,4.9c-3.2,0-6.4,0-9.6,0c-0.1,8.6,0,17.1-0.1,25.7
				c-1.9,0-3.7,0-5.6,0c0-8.6,0-17.1,0-25.7c-3.2,0-6.4,0-9.6,0C784.9,237.5,784.9,235.9,784.8,234.2L784.8,234.2z"/>
			<path fill="#383634" d="M824.5,234.9c6.1-2.5,13.8-1.2,18.3,3.7c4.9,5.2,5.5,13.6,1.7,19.6c-3,4.8-8.8,7.6-14.5,7.3
				c-6.6-0.3-12.8-5-14.5-11.4C813.2,246.5,817.2,237.8,824.5,234.9z M827.8,239.1c-3.3,1-5.9,3.8-6.8,7.1c-1.9,6.2,2.3,13.7,9,14.1
				c7,1,12.7-6.6,10.9-13.2C840.1,241.2,833.5,237.1,827.8,239.1z"/>
			<path fill="#383634" d="M856,234.2c4.8,0,9.6,0,14.4,0c2.9-0.1,6,0.9,8.1,3c3.3,3.5,3.4,9.6,0.2,13.1c-1.3,1.4-3.1,2.2-4.8,3
				c2.8,3.8,5.4,7.6,8.2,11.4c-2.2,0-4.4,0-6.5,0c-2.4-3.6-5-7.1-7.4-10.6c-2.2,0-4.5,0-6.7,0c0,3.6,0,7.1,0,10.7
				c-1.8,0-3.7,0-5.5,0C856,254.6,856,244.4,856,234.2z M861.5,249.3c3.6-0.2,7.3,0.5,10.7-0.5c4.1-1.1,4.5-7.6,0.6-9.1
				c-3.6-1.2-7.5-0.4-11.3-0.7C861.5,242.5,861.5,245.9,861.5,249.3L861.5,249.3z"/>
			<path fill="#383634" d="M890.1,234.3c5.2,0,10.4-0.1,15.6,0c4.3,0.1,8.7,3.1,9.4,7.6c1.3,5-2.1,10.1-7,11.5
				c2.8,3.8,5.5,7.7,8.3,11.5c-2.2,0-4.3,0-6.5,0c-2.5-3.6-5-7.1-7.5-10.7h-6.6c0,3.6,0,7.1,0,10.7c-1.9,0-3.7,0-5.5-0.1
				C890.1,254.6,890.1,244.4,890.1,234.3L890.1,234.3z M895.7,239.1c0,3.4,0,6.8,0,10.2c3.6-0.2,7.4,0.5,10.9-0.6
				c3.7-1.2,4.3-6.9,0.9-8.8C903.8,238.3,899.6,239.4,895.7,239.1L895.7,239.1z"/>
			<path fill="#383634" d="M924.3,234.2c7.6,0,15.2,0,22.8,0c0,1.6,0,3.2,0,4.8h-17.3v7.8c5.1,0,10.1,0,15.2,0c0,1.7,0,3.3,0,5
				c-5.1,0-10.2,0-15.2,0c0,2.7,0,5.5,0.1,8.2c5.8,0,11.6,0,17.4,0c0,1.6,0,3.2,0,4.8c-7.7,0-15.3,0-23,0
				C924.3,254.6,924.4,244.4,924.3,234.2L924.3,234.2z"/>
			<path fill="#383634" d="M959.5,235.3c5.5-3.1,12.8-1.7,17.5,2.2c-0.9,1.4-1.9,2.8-2.9,4.2c-2.7-1.8-5.9-3.5-9.3-3.1
				c-2.2,0-4.5,1.8-4,4.2c0.1,1.5,1.5,2.3,2.7,2.8c3.8,1.5,8.1,1.7,11.5,4.2c3.5,2.5,3.7,7.9,1.4,11.3c-1.8,2.6-5,3.8-8,4.2
				c-5.2,0.5-10.5-1.5-14.4-4.9c1-1.3,2.1-2.6,3.2-3.9c3.5,2.8,8.3,5.1,12.8,3.4c2.5-0.8,3.3-4.7,0.9-6.1c-4-2.4-9.3-2-13.1-5
				C953.8,245.4,954.8,237.9,959.5,235.3L959.5,235.3z"/>
		</g>
	</g>
	<g id="PD">
		<g>
			<path fill="#383634" d="M362,256c0,2.8-2,5.2-4.9,5.2s-4.9-2.3-4.9-5.2v0c0-2.8,2-5.2,4.9-5.2S362,253.1,362,256L362,256L362,256
				z M357,248.9c-4,0-7,3.2-7,7v0c0,3.8,2.9,7,7,7s7-3.2,7-7v0C364,252.1,361.1,248.9,357,248.9 M342.9,252.7v-3.5h-2v13.4h2v-5.3
				c0-4,2.4-6.1,5.3-6.1h0.2V249C345.9,248.9,343.9,250.5,342.9,252.7 M326.8,255.2c0.3-2.6,2-4.6,4.4-4.6c2.7,0,4.1,2.1,4.3,4.6
				H326.8z M331.2,248.9c-3.7,0-6.4,3.1-6.4,7v0c0,4.2,3,7,6.7,7c2.5,0,4.2-1,5.5-2.5l-1.2-1.1c-1.1,1.1-2.4,1.9-4.2,1.9
				c-2.4,0-4.4-1.6-4.7-4.5h10.6c0-0.2,0-0.4,0-0.7C337.4,252.1,335.2,248.9,331.2,248.9 M319.1,256.9c0,2.5-1.7,4.2-4,4.2
				s-3.7-1.6-3.7-4v-7.8h-2v8.3c0,3.2,1.9,5.4,5.1,5.4c2.3,0,3.7-1.2,4.6-2.6v2.3h2v-13.4h-2L319.1,256.9L319.1,256.9z M303.5,253.6
				c0,4-2.9,7.1-7.5,7.1h-4.2v-14.4h4.2C300.6,246.4,303.5,249.5,303.5,253.6L303.5,253.6L303.5,253.6z M296,244.5h-6.3v18.1h6.3
				c5.7,0,9.6-4,9.6-9.1v0C305.6,248.4,301.7,244.5,296,244.5 M358.3,224.2c-3.1-0.8-3.9-1.2-3.9-2.4v0c0-0.9,0.8-1.6,2.3-1.6
				s3.1,0.7,4.7,1.8l2.1-3c-1.8-1.5-4.1-2.3-6.7-2.3c-3.7,0-6.3,2.2-6.3,5.5v0c0,3.6,2.4,4.6,6,5.6c3,0.8,3.7,1.3,3.7,2.3v0
				c0,1.1-1,1.7-2.6,1.7c-2.1,0-3.8-0.9-5.4-2.2l-2.4,2.8c2.2,1.9,4.9,2.9,7.7,2.9c3.9,0,6.7-2,6.7-5.6v0
				C364.1,226.5,362,225.1,358.3,224.2 M343.4,226c0,3.1-2.2,5.6-5.4,5.6c-3.2,0-5.5-2.6-5.5-5.7v0c0-3.1,2.2-5.6,5.4-5.6
				S343.4,222.9,343.4,226L343.4,226L343.4,226z M347.6,226L347.6,226c0-5.2-4-9.4-9.6-9.4s-9.7,4.2-9.7,9.4v0c0,5.2,4,9.3,9.6,9.3
				S347.6,231.1,347.6,226 M321.4,226c0,3.2-2.2,5.4-5.5,5.4h-3.1v-10.9h3.1C319.1,220.5,321.4,222.8,321.4,226L321.4,226L321.4,226
				z M325.5,225.9c0-5.1-3.9-9-9.6-9h-7.1V235h7.1C321.6,235,325.5,231.1,325.5,225.9L325.5,225.9L325.5,225.9z M293.9,227.5
				l2.4-5.9l2.4,5.9H293.9L293.9,227.5z M294.6,216.8l-7.8,18.3h4.1l1.7-4.1h7.7l1.7,4.1h4.2l-7.8-18.3H294.6L294.6,216.8z
				 M277.8,231.7c-3.1,0-5.3-2.6-5.3-5.7v0c0-3.1,2.2-5.6,5.3-5.6c1.8,0,3.2,0.8,4.6,2.1l2.5-2.9c-1.7-1.7-3.7-2.8-7.2-2.8
				c-5.6,0-9.5,4.2-9.5,9.4v0c0,5.2,4,9.3,9.3,9.3c3.5,0,5.6-1.2,7.4-3.2l-2.5-2.6C281.2,230.8,279.9,231.7,277.8,231.7 M260.7,235
				h4v-18.1h-4V235z M252.9,223.1c0,1.5-1.1,2.6-3.1,2.6h-4v-5.2h4C251.7,220.5,252.9,221.4,252.9,223.1L252.9,223.1z M256.9,222.9
				L256.9,222.9c0-1.8-0.5-3.2-1.6-4.2c-1.2-1.2-3-1.8-5.3-1.8h-8.3v18.1h4v-5.8h3.1l3.9,5.8h4.7l-4.4-6.5
				C255.3,227.7,256.9,225.9,256.9,222.9 M234.5,229.6c0,1.4-1.1,2-2.8,2h-4.7v-4h4.6C233.6,227.5,234.5,228.3,234.5,229.6
				L234.5,229.6L234.5,229.6z M226.9,220.4h3.9c1.7,0,2.6,0.7,2.6,1.9v0c0,1.4-1.1,1.9-2.9,1.9h-3.7L226.9,220.4L226.9,220.4z
				 M235.1,225.6c1.3-0.7,2.4-1.9,2.4-3.9v0c0-1.2-0.4-2.3-1.2-3.1c-1-1-2.7-1.6-4.7-1.6H223v18.1h8.6c4.1,0,6.8-1.7,6.8-5v0
				C238.5,227.6,237.2,226.4,235.1,225.6 M208.2,227.5l2.4-5.9l2.4,5.9H208.2L208.2,227.5z M208.8,216.8L201,235h4.1l1.7-4.1h7.7
				l1.7,4.1h4.2l-7.8-18.3H208.8L208.8,216.8z M191.6,220.5h9.8v-3.6h-13.8v18.1h4v-7h8.7v-3.6h-8.7L191.6,220.5L191.6,220.5z
				 M174.2,227.7h8.6v-3.5h-8.6v-3.7h9.7v-3.5h-13.7v18.1h13.8v-3.5h-9.8V227.7L174.2,227.7z M162.6,223.1c0,1.5-1.1,2.6-3.1,2.6h-4
				v-5.2h4C161.4,220.5,162.6,221.4,162.6,223.1L162.6,223.1z M166.7,222.9L166.7,222.9c0-1.8-0.5-3.2-1.6-4.2
				c-1.2-1.2-3-1.8-5.3-1.8h-8.3v18.1h4v-5.8h3.1l3.9,5.8h4.7l-4.4-6.5C165.1,227.7,166.7,225.9,166.7,222.9 M144.5,223.3
				c0,1.6-1.2,2.8-3.2,2.8h-3.2v-5.6h3.1C143.3,220.5,144.5,221.5,144.5,223.3L144.5,223.3z M141.6,216.9h-7.4V235h4v-5.4h3
				c4.1,0,7.3-2.2,7.3-6.4v0C148.6,219.5,146,216.9,141.6,216.9"/>
			<path fill="#383634" d="M322.2,167.6h-11.5c-11.1,0-17.7-4.7-17.7-13.8v-0.4c0-9,7.2-13.8,17.9-13.8h11.3L322.2,167.6
				L322.2,167.6z M346.5,75.8l-24.3,34h-13.6c-33.8,0-56.9,16.1-56.9,46.4v0.4c0,29.7,22.7,44.6,56,44.6h56.4V75.8H346.5L346.5,75.8
				z M205.3,123.4c0,9-7.2,13.8-17.9,13.8h-11.3v-27.9h11.5c11.1,0,17.7,4.7,17.7,13.8L205.3,123.4L205.3,123.4z M190.6,75.8h-31.9
				l-24.5,34.1V201h41.9v-34h13.6c33.8,0,56.9-16.1,56.9-46.3v-0.4C246.6,90.6,223.9,75.8,190.6,75.8"/>
			<path fill="#CC2032" d="M185.7,57.1c-6.9-9.6-28.9-40.3-36.5-50.9c-1.6-2.3-4.2-3.6-7-3.6h-4.5c-2,0-3.1,2.2-2,3.8l22.9,31.8
				c3.9,5.4,6,12.2,6.4,19.2c0.1,1.5,1.3,2.6,2.8,2.6h16.3C185.7,60,186.6,58.3,185.7,57.1 M111.5,60c0,0-29.6-41.2-38.5-53.8
				c-1.6-2.3-4.2-3.6-7-3.6H21.2c-4.7,0-7.4,5.3-4.7,9.1C28.1,27.8,51.1,60,51.1,60l-39.4,54.9l0,0c-4.1,5.5-6.5,12.3-6.5,19.7
				c0,18.2,14.8,33,33,33c0,0,0,0,0,0l0,0h60.3c-18.2,0-33-14.8-33-33c0-8,2.8-15.3,7.6-21L111.5,60L111.5,60z"/>
		</g>
	</g>
</g>
</svg>
